<?xml version="1.0" encoding="utf-8"?>
<!-- Generator: Adobe Illustrator 24.1.1, SVG Export Plug-In . SVG Version: 6.00 Build 0)  -->
<svg version="1.1" id="Layer_1" xmlns="http://www.w3.org/2000/svg" xmlns:xlink="http://www.w3.org/1999/xlink" x="0px" y="0px"
	 viewBox="0 0 96 96" style="enable-background:new 0 0 96 96;" xml:space="preserve">
<style type="text/css">
	.st0{fill:#FFFFFF;}
</style>
<g id="XMLID_2_">
	<path id="XMLID_11_" class="st0" d="M12.3,37.7l27.4,35.3L26.4,37.7C26.4,37.7,12.3,37.7,12.3,37.7z M48.1,78.8l15.4-40.8H32.7
		L48.1,78.8z M26.6,31l9-20.3H24.1L11.5,31H26.6z M56.4,73.1l27.4-35.3H69.5L56.4,73.1z M33,31h30l-9-20.3H41.8L33,31z M69.5,31
		h15.2L72.1,10.7H60.7L69.5,31z M75.6,5.4l16.9,27c0.5,0.6,0.7,1.4,0.5,2.2c0,0.8-0.3,1.6-0.8,2.2L50.2,91c-0.5,0.8-1.1,1-2.1,1
		c-1,0-1.5-0.4-2.1-1L3.8,36.8c-0.5-0.6-0.7-1.4-0.8-2.2c0-0.8,0.2-1.6,0.5-2.2l16.9-27c0.5-1,1.3-1.4,2.3-1.4h50.6
		C74.4,4,75.1,4.4,75.6,5.4z"/>
</g>
</svg>
